<?xml version="1.0" standalone="no"?>
<!DOCTYPE svg PUBLIC "-//W3C//DTD SVG 20010904//EN"
 "http://www.w3.org/TR/2001/REC-SVG-20010904/DTD/svg10.dtd">
<svg version="1.0" xmlns="http://www.w3.org/2000/svg"
 width="512.000000pt" height="512.000000pt" viewBox="0 0 512.000000 512.000000"
 preserveAspectRatio="xMidYMid meet">
<metadata>
Created by potrace 1.14, written by Peter Selinger 2001-2017
</metadata>
<g transform="translate(0.000000,512.000000) scale(0.100000,-0.100000)"
fill="#000000" stroke="none">
<path d="M0 2560 l0 -2560 2560 0 2560 0 0 2560 0 2560 -2560 0 -2560 0 0
-2560z m2812 2124 c224 -29 480 -105 662 -196 l79 -40 -94 -37 c-309 -125
-657 -344 -1004 -633 -134 -111 -435 -407 -553 -543 -196 -227 -289 -368 -417
-639 -106 -223 -245 -587 -245 -641 0 -24 -30 -17 -123 30 -146 73 -265 166
-388 301 -55 61 -59 69 -59 114 0 222 198 745 400 1053 328 503 741 867 1350
1191 103 54 107 56 187 56 44 0 137 -7 205 -16z m-582 -8 c0 -2 -29 -20 -64
-40 -87 -49 -293 -185 -391 -259 -296 -224 -567 -511 -775 -825 -178 -266
-351 -658 -414 -936 l-23 -99 -36 59 c-19 32 -56 101 -81 153 -51 105 -51 98
-15 266 153 715 669 1315 1350 1569 156 58 449 131 449 112z m1551 -368 c176
-122 356 -297 486 -471 40 -54 73 -102 73 -106 0 -4 -50 -19 -112 -34 -329
-81 -697 -268 -998 -507 -138 -109 -381 -354 -501 -505 -74 -93 -115 -158
-182 -286 -144 -279 -236 -419 -339 -515 l-55 -52 -88 -7 c-160 -14 -435 1
-568 29 -65 14 -122 28 -126 31 -31 18 112 408 260 711 151 309 270 466 603
800 339 338 605 547 949 744 155 88 454 218 508 220 9 0 49 -23 90 -52z m676
-773 c50 -94 135 -306 157 -390 l15 -60 -32 40 c-94 118 -222 229 -412 355
-96 64 -90 59 -82 66 12 13 253 73 282 71 27 -2 35 -11 72 -82z m-335 -141
c274 -185 391 -307 521 -542 l46 -82 6 -128 c14 -264 -31 -562 -124 -825 -11
-31 -23 -62 -27 -69 -4 -6 -21 31 -39 83 -88 257 -208 495 -388 764 -110 165
-349 403 -626 623 l-24 19 94 58 c52 32 157 89 234 127 110 54 146 68 170 63
16 -3 87 -44 157 -91z m-607 -331 c60 -48 185 -162 276 -253 129 -128 183
-189 236 -270 195 -295 325 -566 413 -862 l30 -102 -60 -105 c-116 -202 -290
-412 -462 -559 -47 -39 -89 -72 -94 -72 -5 0 -19 48 -32 108 -46 212 -156 503
-263 695 -80 144 -150 234 -602 769 -100 119 -156 193 -151 200 4 7 45 56 90
109 172 198 462 456 493 439 9 -5 65 -48 126 -97z m-3060 -576 c175 -298 362
-476 640 -608 185 -88 374 -138 605 -160 119 -11 355 -7 427 7 l32 6 190 -382
c105 -210 191 -388 191 -395 0 -12 -96 -43 -203 -65 -99 -21 -279 -29 -411
-19 -558 42 -1096 312 -1281 644 -118 210 -215 515 -244 760 -16 139 -24 315
-15 315 5 0 36 -46 69 -103z m2386 -101 c57 -68 181 -215 275 -327 256 -305
304 -373 393 -554 90 -181 143 -327 194 -530 57 -231 58 -208 -15 -256 -94
-61 -329 -173 -448 -213 -93 -31 -251 -72 -348 -90 -22 -4 -34 -1 -37 7 -132
388 -217 591 -430 1014 l-172 342 40 38 c95 91 197 249 343 529 47 90 89 164
94 164 4 0 54 -56 111 -124z m-1710 -1415 c278 -131 558 -198 864 -208 201 -6
301 3 453 43 53 14 107 28 118 31 24 5 26 0 129 -284 l53 -148 -27 -6 c-14 -4
-87 -7 -161 -8 -481 -4 -942 149 -1324 439 -90 69 -227 189 -215 190 3 0 53
-22 110 -49z"/>
</g>
</svg>
